<svg xmlns="http://www.w3.org/2000/svg" width="1040" height="620" viewBox="0 0 1040 620">
<rect width="100%" height="100%" fill="#ffffff"/>
<text x="30.0" y="34.0" font-size="22" font-family="Arial, sans-serif" text-anchor="start" fill="#111827">Part 2 Language and Tone Over Time</text>
<text x="30.0" y="56.0" font-size="13" font-family="Arial, sans-serif" text-anchor="start" fill="#111827">Lexical tone indicators indexed to 2016 = 100</text>
<line x1="92.0" y1="530.0" x2="780.0" y2="530.0" stroke="#6b7280" stroke-width="1"/>
<line x1="92.0" y1="70.0" x2="92.0" y2="530.0" stroke="#6b7280" stroke-width="1"/>
<line x1="87.0" y1="530.0" x2="780.0" y2="530.0" stroke="#e5e7eb" stroke-width="1"/>
<text x="80.0" y="534.0" font-size="11" font-family="Arial, sans-serif" text-anchor="end" fill="#111827">80</text>
<line x1="87.0" y1="438.0" x2="780.0" y2="438.0" stroke="#e5e7eb" stroke-width="1"/>
<text x="80.0" y="442.0" font-size="11" font-family="Arial, sans-serif" text-anchor="end" fill="#111827">99</text>
<line x1="87.0" y1="346.0" x2="780.0" y2="346.0" stroke="#e5e7eb" stroke-width="1"/>
<text x="80.0" y="350.0" font-size="11" font-family="Arial, sans-serif" text-anchor="end" fill="#111827">119</text>
<line x1="87.0" y1="254.0" x2="780.0" y2="254.0" stroke="#e5e7eb" stroke-width="1"/>
<text x="80.0" y="258.0" font-size="11" font-family="Arial, sans-serif" text-anchor="end" fill="#111827">138</text>
<line x1="87.0" y1="162.0" x2="780.0" y2="162.0" stroke="#e5e7eb" stroke-width="1"/>
<text x="80.0" y="166.0" font-size="11" font-family="Arial, sans-serif" text-anchor="end" fill="#111827">158</text>
<line x1="87.0" y1="70.0" x2="780.0" y2="70.0" stroke="#e5e7eb" stroke-width="1"/>
<text x="80.0" y="74.0" font-size="11" font-family="Arial, sans-serif" text-anchor="end" fill="#111827">177</text>
<line x1="92.0" y1="530.0" x2="92.0" y2="535.0" stroke="#6b7280" stroke-width="1"/>
<text x="92.0" y="554.0" font-size="11" font-family="Arial, sans-serif" text-anchor="middle" fill="#111827">2016</text>
<line x1="178.0" y1="530.0" x2="178.0" y2="535.0" stroke="#6b7280" stroke-width="1"/>
<text x="178.0" y="554.0" font-size="11" font-family="Arial, sans-serif" text-anchor="middle" fill="#111827">2017</text>
<line x1="264.0" y1="530.0" x2="264.0" y2="535.0" stroke="#6b7280" stroke-width="1"/>
<text x="264.0" y="554.0" font-size="11" font-family="Arial, sans-serif" text-anchor="middle" fill="#111827">2018</text>
<line x1="350.0" y1="530.0" x2="350.0" y2="535.0" stroke="#6b7280" stroke-width="1"/>
<text x="350.0" y="554.0" font-size="11" font-family="Arial, sans-serif" text-anchor="middle" fill="#111827">2019</text>
<line x1="436.0" y1="530.0" x2="436.0" y2="535.0" stroke="#6b7280" stroke-width="1"/>
<text x="436.0" y="554.0" font-size="11" font-family="Arial, sans-serif" text-anchor="middle" fill="#111827">2020</text>
<line x1="522.0" y1="530.0" x2="522.0" y2="535.0" stroke="#6b7280" stroke-width="1"/>
<text x="522.0" y="554.0" font-size="11" font-family="Arial, sans-serif" text-anchor="middle" fill="#111827">2021</text>
<line x1="608.0" y1="530.0" x2="608.0" y2="535.0" stroke="#6b7280" stroke-width="1"/>
<text x="608.0" y="554.0" font-size="11" font-family="Arial, sans-serif" text-anchor="middle" fill="#111827">2022</text>
<line x1="694.0" y1="530.0" x2="694.0" y2="535.0" stroke="#6b7280" stroke-width="1"/>
<text x="694.0" y="554.0" font-size="11" font-family="Arial, sans-serif" text-anchor="middle" fill="#111827">2023</text>
<line x1="780.0" y1="530.0" x2="780.0" y2="535.0" stroke="#6b7280" stroke-width="1"/>
<text x="780.0" y="554.0" font-size="11" font-family="Arial, sans-serif" text-anchor="middle" fill="#111827">2024</text>
<path d="M 92.0 435.2 L 178.0 407.4 L 264.0 382.6 L 350.0 343.5 L 436.0 316.3 L 522.0 272.3 L 608.0 264.1 L 694.0 229.1 L 780.0 252.1" fill="none" stroke="#2563eb" stroke-width="2.5"/>
<circle cx="92.0" cy="435.2" r="3.2" fill="#2563eb"/>
<circle cx="178.0" cy="407.4" r="3.2" fill="#2563eb"/>
<circle cx="264.0" cy="382.6" r="3.2" fill="#2563eb"/>
<circle cx="350.0" cy="343.5" r="3.2" fill="#2563eb"/>
<circle cx="436.0" cy="316.3" r="3.2" fill="#2563eb"/>
<circle cx="522.0" cy="272.3" r="3.2" fill="#2563eb"/>
<circle cx="608.0" cy="264.1" r="3.2" fill="#2563eb"/>
<circle cx="694.0" cy="229.1" r="3.2" fill="#2563eb"/>
<circle cx="780.0" cy="252.1" r="3.2" fill="#2563eb"/>
<rect x="814" y="60" width="14" height="14" fill="#2563eb"/>
<text x="836.0" y="72.0" font-size="12" font-family="Arial, sans-serif" text-anchor="start" fill="#111827">Collective voice</text>
<path d="M 92.0 435.2 L 178.0 425.5 L 264.0 430.3 L 350.0 452.9 L 436.0 436.9 L 522.0 435.8 L 608.0 455.7 L 694.0 482.4 L 780.0 501.0" fill="none" stroke="#dc2626" stroke-width="2.5"/>
<circle cx="92.0" cy="435.2" r="3.2" fill="#dc2626"/>
<circle cx="178.0" cy="425.5" r="3.2" fill="#dc2626"/>
<circle cx="264.0" cy="430.3" r="3.2" fill="#dc2626"/>
<circle cx="350.0" cy="452.9" r="3.2" fill="#dc2626"/>
<circle cx="436.0" cy="436.9" r="3.2" fill="#dc2626"/>
<circle cx="522.0" cy="435.8" r="3.2" fill="#dc2626"/>
<circle cx="608.0" cy="455.7" r="3.2" fill="#dc2626"/>
<circle cx="694.0" cy="482.4" r="3.2" fill="#dc2626"/>
<circle cx="780.0" cy="501.0" r="3.2" fill="#dc2626"/>
<rect x="814" y="86" width="14" height="14" fill="#dc2626"/>
<text x="836.0" y="98.0" font-size="12" font-family="Arial, sans-serif" text-anchor="start" fill="#111827">Commitment</text>
<path d="M 92.0 435.2 L 178.0 452.2 L 264.0 397.0 L 350.0 408.3 L 436.0 386.8 L 522.0 359.0 L 608.0 351.9 L 694.0 381.2 L 780.0 362.2" fill="none" stroke="#16a34a" stroke-width="2.5"/>
<circle cx="92.0" cy="435.2" r="3.2" fill="#16a34a"/>
<circle cx="178.0" cy="452.2" r="3.2" fill="#16a34a"/>
<circle cx="264.0" cy="397.0" r="3.2" fill="#16a34a"/>
<circle cx="350.0" cy="408.3" r="3.2" fill="#16a34a"/>
<circle cx="436.0" cy="386.8" r="3.2" fill="#16a34a"/>
<circle cx="522.0" cy="359.0" r="3.2" fill="#16a34a"/>
<circle cx="608.0" cy="351.9" r="3.2" fill="#16a34a"/>
<circle cx="694.0" cy="381.2" r="3.2" fill="#16a34a"/>
<circle cx="780.0" cy="362.2" r="3.2" fill="#16a34a"/>
<rect x="814" y="112" width="14" height="14" fill="#16a34a"/>
<text x="836.0" y="124.0" font-size="12" font-family="Arial, sans-serif" text-anchor="start" fill="#111827">Action/evidence</text>
<path d="M 92.0 435.2 L 178.0 405.1 L 264.0 332.1 L 350.0 275.1 L 436.0 210.8 L 522.0 102.3 L 608.0 166.1 L 694.0 240.3 L 780.0 249.1" fill="none" stroke="#9333ea" stroke-width="2.5"/>
<circle cx="92.0" cy="435.2" r="3.2" fill="#9333ea"/>
<circle cx="178.0" cy="405.1" r="3.2" fill="#9333ea"/>
<circle cx="264.0" cy="332.1" r="3.2" fill="#9333ea"/>
<circle cx="350.0" cy="275.1" r="3.2" fill="#9333ea"/>
<circle cx="436.0" cy="210.8" r="3.2" fill="#9333ea"/>
<circle cx="522.0" cy="102.3" r="3.2" fill="#9333ea"/>
<circle cx="608.0" cy="166.1" r="3.2" fill="#9333ea"/>
<circle cx="694.0" cy="240.3" r="3.2" fill="#9333ea"/>
<circle cx="780.0" cy="249.1" r="3.2" fill="#9333ea"/>
<rect x="814" y="138" width="14" height="14" fill="#9333ea"/>
<text x="836.0" y="150.0" font-size="12" font-family="Arial, sans-serif" text-anchor="start" fill="#111827">Stakeholder orientation</text>
<text x="30.0" y="596.0" font-size="11" font-family="Arial, sans-serif" text-anchor="start" fill="#111827">Table values preserve raw rates per 100 words; the figure compares relative change.</text>
</svg>