<svg xmlns="http://www.w3.org/2000/svg" width="1480" height="700" viewBox="0 0 1480 700">
<rect width="100%" height="100%" fill="#ffffff"/>
<text x="30.0" y="34.0" font-size="22" font-family="Arial, sans-serif" text-anchor="start" fill="#111827">Cross-Sector Theme Heatmap</text>
<text x="30.0" y="56.0" font-size="13" font-family="Arial, sans-serif" text-anchor="start" fill="#111827">All taxonomy themes; mean matches per 10,000 words by sector</text>
<text x="276.0" y="67.0" font-size="10" font-family="Arial, sans-serif" text-anchor="middle" fill="#111827">Shareholders</text>
<text x="276.0" y="80.0" font-size="10" font-family="Arial, sans-serif" text-anchor="middle" fill="#111827">&amp;</text>
<text x="276.0" y="93.0" font-size="10" font-family="Arial, sans-serif" text-anchor="middle" fill="#111827">performance</text>
<text x="368.0" y="67.0" font-size="10" font-family="Arial, sans-serif" text-anchor="middle" fill="#111827">Employees</text>
<text x="368.0" y="80.0" font-size="10" font-family="Arial, sans-serif" text-anchor="middle" fill="#111827">&amp;</text>
<text x="368.0" y="93.0" font-size="10" font-family="Arial, sans-serif" text-anchor="middle" fill="#111827">workplace</text>
<text x="460.0" y="67.0" font-size="10" font-family="Arial, sans-serif" text-anchor="middle" fill="#111827">Diversity,</text>
<text x="460.0" y="80.0" font-size="10" font-family="Arial, sans-serif" text-anchor="middle" fill="#111827">equity,</text>
<text x="460.0" y="93.0" font-size="10" font-family="Arial, sans-serif" text-anchor="middle" fill="#111827">&amp;</text>
<text x="552.0" y="67.0" font-size="10" font-family="Arial, sans-serif" text-anchor="middle" fill="#111827">Leadership</text>
<text x="552.0" y="80.0" font-size="10" font-family="Arial, sans-serif" text-anchor="middle" fill="#111827">&amp;</text>
<text x="552.0" y="93.0" font-size="10" font-family="Arial, sans-serif" text-anchor="middle" fill="#111827">accountability</text>
<text x="644.0" y="67.0" font-size="10" font-family="Arial, sans-serif" text-anchor="middle" fill="#111827">Customers</text>
<text x="644.0" y="80.0" font-size="10" font-family="Arial, sans-serif" text-anchor="middle" fill="#111827">&amp;</text>
<text x="644.0" y="93.0" font-size="10" font-family="Arial, sans-serif" text-anchor="middle" fill="#111827">service</text>
<text x="736.0" y="67.0" font-size="10" font-family="Arial, sans-serif" text-anchor="middle" fill="#111827">Environment</text>
<text x="736.0" y="80.0" font-size="10" font-family="Arial, sans-serif" text-anchor="middle" fill="#111827">&amp;</text>
<text x="736.0" y="93.0" font-size="10" font-family="Arial, sans-serif" text-anchor="middle" fill="#111827">sustainability</text>
<text x="828.0" y="67.0" font-size="10" font-family="Arial, sans-serif" text-anchor="middle" fill="#111827">Health,</text>
<text x="828.0" y="80.0" font-size="10" font-family="Arial, sans-serif" text-anchor="middle" fill="#111827">safety,</text>
<text x="828.0" y="93.0" font-size="10" font-family="Arial, sans-serif" text-anchor="middle" fill="#111827">&amp;</text>
<text x="920.0" y="67.0" font-size="10" font-family="Arial, sans-serif" text-anchor="middle" fill="#111827">Integrity</text>
<text x="920.0" y="80.0" font-size="10" font-family="Arial, sans-serif" text-anchor="middle" fill="#111827">&amp;</text>
<text x="920.0" y="93.0" font-size="10" font-family="Arial, sans-serif" text-anchor="middle" fill="#111827">ethics</text>
<text x="1012.0" y="67.0" font-size="10" font-family="Arial, sans-serif" text-anchor="middle" fill="#111827">Innovation</text>
<text x="1012.0" y="80.0" font-size="10" font-family="Arial, sans-serif" text-anchor="middle" fill="#111827">&amp;</text>
<text x="1012.0" y="93.0" font-size="10" font-family="Arial, sans-serif" text-anchor="middle" fill="#111827">excellence</text>
<text x="1104.0" y="67.0" font-size="10" font-family="Arial, sans-serif" text-anchor="middle" fill="#111827">Social</text>
<text x="1104.0" y="80.0" font-size="10" font-family="Arial, sans-serif" text-anchor="middle" fill="#111827">impact</text>
<text x="1104.0" y="93.0" font-size="10" font-family="Arial, sans-serif" text-anchor="middle" fill="#111827">&amp;</text>
<text x="1196.0" y="67.0" font-size="10" font-family="Arial, sans-serif" text-anchor="middle" fill="#111827">Collaboration</text>
<text x="1196.0" y="80.0" font-size="10" font-family="Arial, sans-serif" text-anchor="middle" fill="#111827">&amp;</text>
<text x="1196.0" y="93.0" font-size="10" font-family="Arial, sans-serif" text-anchor="middle" fill="#111827">partnership</text>
<text x="1288.0" y="67.0" font-size="10" font-family="Arial, sans-serif" text-anchor="middle" fill="#111827">Purpose</text>
<text x="1288.0" y="80.0" font-size="10" font-family="Arial, sans-serif" text-anchor="middle" fill="#111827">&amp;</text>
<text x="1288.0" y="93.0" font-size="10" font-family="Arial, sans-serif" text-anchor="middle" fill="#111827">identity</text>
<text x="214.0" y="153.0" font-size="12" font-family="Arial, sans-serif" text-anchor="end" fill="#111827">Consumer Discretionary</text>
<rect x="230" y="115" width="88" height="64" rx="0" fill="rgb(49,126,215)" stroke="#ffffff"/>
<text x="274.0" y="153.0" font-size="12" font-family="Arial, sans-serif" text-anchor="middle" fill="#111827">53.0</text>
<rect x="322" y="115" width="88" height="64" rx="0" fill="rgb(145,187,235)" stroke="#ffffff"/>
<text x="366.0" y="153.0" font-size="12" font-family="Arial, sans-serif" text-anchor="middle" fill="#111827">22.3</text>
<rect x="414" y="115" width="88" height="64" rx="0" fill="rgb(136,181,233)" stroke="#ffffff"/>
<text x="458.0" y="153.0" font-size="12" font-family="Arial, sans-serif" text-anchor="middle" fill="#111827">25.2</text>
<rect x="506" y="115" width="88" height="64" rx="0" fill="rgb(128,176,231)" stroke="#ffffff"/>
<text x="550.0" y="153.0" font-size="12" font-family="Arial, sans-serif" text-anchor="middle" fill="#111827">27.8</text>
<rect x="598" y="115" width="88" height="64" rx="0" fill="rgb(161,196,238)" stroke="#ffffff"/>
<text x="642.0" y="153.0" font-size="12" font-family="Arial, sans-serif" text-anchor="middle" fill="#111827">17.4</text>
<rect x="690" y="115" width="88" height="64" rx="0" fill="rgb(177,207,242)" stroke="#ffffff"/>
<text x="734.0" y="153.0" font-size="12" font-family="Arial, sans-serif" text-anchor="middle" fill="#111827">12.1</text>
<rect x="782" y="115" width="88" height="64" rx="0" fill="rgb(187,213,244)" stroke="#ffffff"/>
<text x="826.0" y="153.0" font-size="12" font-family="Arial, sans-serif" text-anchor="middle" fill="#111827">9.0</text>
<rect x="874" y="115" width="88" height="64" rx="0" fill="rgb(197,219,246)" stroke="#ffffff"/>
<text x="918.0" y="153.0" font-size="12" font-family="Arial, sans-serif" text-anchor="middle" fill="#111827">5.9</text>
<rect x="966" y="115" width="88" height="64" rx="0" fill="rgb(206,225,248)" stroke="#ffffff"/>
<text x="1010.0" y="153.0" font-size="12" font-family="Arial, sans-serif" text-anchor="middle" fill="#111827">3.0</text>
<rect x="1058" y="115" width="88" height="64" rx="0" fill="rgb(204,223,247)" stroke="#ffffff"/>
<text x="1102.0" y="153.0" font-size="12" font-family="Arial, sans-serif" text-anchor="middle" fill="#111827">3.8</text>
<rect x="1150" y="115" width="88" height="64" rx="0" fill="rgb(207,226,248)" stroke="#ffffff"/>
<text x="1194.0" y="153.0" font-size="12" font-family="Arial, sans-serif" text-anchor="middle" fill="#111827">2.7</text>
<rect x="1242" y="115" width="88" height="64" rx="0" fill="rgb(212,229,249)" stroke="#ffffff"/>
<text x="1286.0" y="153.0" font-size="12" font-family="Arial, sans-serif" text-anchor="middle" fill="#111827">1.1</text>
<text x="214.0" y="221.0" font-size="12" font-family="Arial, sans-serif" text-anchor="end" fill="#111827">Energy</text>
<rect x="230" y="183" width="88" height="64" rx="0" fill="rgb(135,180,233)" stroke="#ffffff"/>
<text x="274.0" y="221.0" font-size="12" font-family="Arial, sans-serif" text-anchor="middle" fill="#111827">25.7</text>
<rect x="322" y="183" width="88" height="64" rx="0" fill="rgb(117,169,229)" stroke="#ffffff"/>
<text x="366.0" y="221.0" font-size="12" font-family="Arial, sans-serif" text-anchor="middle" fill="#111827">31.3</text>
<rect x="414" y="183" width="88" height="64" rx="0" fill="rgb(161,196,238)" stroke="#ffffff"/>
<text x="458.0" y="221.0" font-size="12" font-family="Arial, sans-serif" text-anchor="middle" fill="#111827">17.5</text>
<rect x="506" y="183" width="88" height="64" rx="0" fill="rgb(153,191,236)" stroke="#ffffff"/>
<text x="550.0" y="221.0" font-size="12" font-family="Arial, sans-serif" text-anchor="middle" fill="#111827">19.9</text>
<rect x="598" y="183" width="88" height="64" rx="0" fill="rgb(177,207,242)" stroke="#ffffff"/>
<text x="642.0" y="221.0" font-size="12" font-family="Arial, sans-serif" text-anchor="middle" fill="#111827">12.1</text>
<rect x="690" y="183" width="88" height="64" rx="0" fill="rgb(141,184,234)" stroke="#ffffff"/>
<text x="734.0" y="221.0" font-size="12" font-family="Arial, sans-serif" text-anchor="middle" fill="#111827">23.8</text>
<rect x="782" y="183" width="88" height="64" rx="0" fill="rgb(173,204,241)" stroke="#ffffff"/>
<text x="826.0" y="221.0" font-size="12" font-family="Arial, sans-serif" text-anchor="middle" fill="#111827">13.5</text>
<rect x="874" y="183" width="88" height="64" rx="0" fill="rgb(199,221,246)" stroke="#ffffff"/>
<text x="918.0" y="221.0" font-size="12" font-family="Arial, sans-serif" text-anchor="middle" fill="#111827">5.2</text>
<rect x="966" y="183" width="88" height="64" rx="0" fill="rgb(207,226,248)" stroke="#ffffff"/>
<text x="1010.0" y="221.0" font-size="12" font-family="Arial, sans-serif" text-anchor="middle" fill="#111827">2.8</text>
<rect x="1058" y="183" width="88" height="64" rx="0" fill="rgb(207,226,248)" stroke="#ffffff"/>
<text x="1102.0" y="221.0" font-size="12" font-family="Arial, sans-serif" text-anchor="middle" fill="#111827">2.7</text>
<rect x="1150" y="183" width="88" height="64" rx="0" fill="rgb(208,226,248)" stroke="#ffffff"/>
<text x="1194.0" y="221.0" font-size="12" font-family="Arial, sans-serif" text-anchor="middle" fill="#111827">2.3</text>
<rect x="1242" y="183" width="88" height="64" rx="0" fill="rgb(214,230,249)" stroke="#ffffff"/>
<text x="1286.0" y="221.0" font-size="12" font-family="Arial, sans-serif" text-anchor="middle" fill="#111827">0.5</text>
<text x="214.0" y="289.0" font-size="12" font-family="Arial, sans-serif" text-anchor="end" fill="#111827">Financials</text>
<rect x="230" y="251" width="88" height="64" rx="0" fill="rgb(77,144,221)" stroke="#ffffff"/>
<text x="274.0" y="289.0" font-size="12" font-family="Arial, sans-serif" text-anchor="middle" fill="#111827">43.9</text>
<rect x="322" y="251" width="88" height="64" rx="0" fill="rgb(121,171,230)" stroke="#ffffff"/>
<text x="366.0" y="289.0" font-size="12" font-family="Arial, sans-serif" text-anchor="middle" fill="#111827">30.1</text>
<rect x="414" y="251" width="88" height="64" rx="0" fill="rgb(119,170,229)" stroke="#ffffff"/>
<text x="458.0" y="289.0" font-size="12" font-family="Arial, sans-serif" text-anchor="middle" fill="#111827">30.8</text>
<rect x="506" y="251" width="88" height="64" rx="0" fill="rgb(124,173,230)" stroke="#ffffff"/>
<text x="550.0" y="289.0" font-size="12" font-family="Arial, sans-serif" text-anchor="middle" fill="#111827">29.0</text>
<rect x="598" y="251" width="88" height="64" rx="0" fill="rgb(143,185,234)" stroke="#ffffff"/>
<text x="642.0" y="289.0" font-size="12" font-family="Arial, sans-serif" text-anchor="middle" fill="#111827">22.9</text>
<rect x="690" y="251" width="88" height="64" rx="0" fill="rgb(167,201,240)" stroke="#ffffff"/>
<text x="734.0" y="289.0" font-size="12" font-family="Arial, sans-serif" text-anchor="middle" fill="#111827">15.4</text>
<rect x="782" y="251" width="88" height="64" rx="0" fill="rgb(195,218,245)" stroke="#ffffff"/>
<text x="826.0" y="289.0" font-size="12" font-family="Arial, sans-serif" text-anchor="middle" fill="#111827">6.6</text>
<rect x="874" y="251" width="88" height="64" rx="0" fill="rgb(192,216,245)" stroke="#ffffff"/>
<text x="918.0" y="289.0" font-size="12" font-family="Arial, sans-serif" text-anchor="middle" fill="#111827">7.5</text>
<rect x="966" y="251" width="88" height="64" rx="0" fill="rgb(207,226,248)" stroke="#ffffff"/>
<text x="1010.0" y="289.0" font-size="12" font-family="Arial, sans-serif" text-anchor="middle" fill="#111827">2.8</text>
<rect x="1058" y="251" width="88" height="64" rx="0" fill="rgb(199,221,246)" stroke="#ffffff"/>
<text x="1102.0" y="289.0" font-size="12" font-family="Arial, sans-serif" text-anchor="middle" fill="#111827">5.2</text>
<rect x="1150" y="251" width="88" height="64" rx="0" fill="rgb(206,225,248)" stroke="#ffffff"/>
<text x="1194.0" y="289.0" font-size="12" font-family="Arial, sans-serif" text-anchor="middle" fill="#111827">3.1</text>
<rect x="1242" y="251" width="88" height="64" rx="0" fill="rgb(213,230,249)" stroke="#ffffff"/>
<text x="1286.0" y="289.0" font-size="12" font-family="Arial, sans-serif" text-anchor="middle" fill="#111827">0.7</text>
<text x="214.0" y="357.0" font-size="12" font-family="Arial, sans-serif" text-anchor="end" fill="#111827">Healthcare</text>
<rect x="230" y="319" width="88" height="64" rx="0" fill="rgb(67,137,218)" stroke="#ffffff"/>
<text x="274.0" y="357.0" font-size="12" font-family="Arial, sans-serif" text-anchor="middle" fill="#111827">47.3</text>
<rect x="322" y="319" width="88" height="64" rx="0" fill="rgb(125,174,231)" stroke="#ffffff"/>
<text x="366.0" y="357.0" font-size="12" font-family="Arial, sans-serif" text-anchor="middle" fill="#111827">28.7</text>
<rect x="414" y="319" width="88" height="64" rx="0" fill="rgb(143,185,234)" stroke="#ffffff"/>
<text x="458.0" y="357.0" font-size="12" font-family="Arial, sans-serif" text-anchor="middle" fill="#111827">23.1</text>
<rect x="506" y="319" width="88" height="64" rx="0" fill="rgb(143,185,234)" stroke="#ffffff"/>
<text x="550.0" y="357.0" font-size="12" font-family="Arial, sans-serif" text-anchor="middle" fill="#111827">22.9</text>
<rect x="598" y="319" width="88" height="64" rx="0" fill="rgb(160,196,238)" stroke="#ffffff"/>
<text x="642.0" y="357.0" font-size="12" font-family="Arial, sans-serif" text-anchor="middle" fill="#111827">17.5</text>
<rect x="690" y="319" width="88" height="64" rx="0" fill="rgb(189,214,244)" stroke="#ffffff"/>
<text x="734.0" y="357.0" font-size="12" font-family="Arial, sans-serif" text-anchor="middle" fill="#111827">8.4</text>
<rect x="782" y="319" width="88" height="64" rx="0" fill="rgb(172,204,241)" stroke="#ffffff"/>
<text x="826.0" y="357.0" font-size="12" font-family="Arial, sans-serif" text-anchor="middle" fill="#111827">13.8</text>
<rect x="874" y="319" width="88" height="64" rx="0" fill="rgb(192,216,245)" stroke="#ffffff"/>
<text x="918.0" y="357.0" font-size="12" font-family="Arial, sans-serif" text-anchor="middle" fill="#111827">7.6</text>
<rect x="966" y="319" width="88" height="64" rx="0" fill="rgb(194,217,245)" stroke="#ffffff"/>
<text x="1010.0" y="357.0" font-size="12" font-family="Arial, sans-serif" text-anchor="middle" fill="#111827">6.9</text>
<rect x="1058" y="319" width="88" height="64" rx="0" fill="rgb(207,226,248)" stroke="#ffffff"/>
<text x="1102.0" y="357.0" font-size="12" font-family="Arial, sans-serif" text-anchor="middle" fill="#111827">2.7</text>
<rect x="1150" y="319" width="88" height="64" rx="0" fill="rgb(206,225,248)" stroke="#ffffff"/>
<text x="1194.0" y="357.0" font-size="12" font-family="Arial, sans-serif" text-anchor="middle" fill="#111827">2.9</text>
<rect x="1242" y="319" width="88" height="64" rx="0" fill="rgb(212,229,249)" stroke="#ffffff"/>
<text x="1286.0" y="357.0" font-size="12" font-family="Arial, sans-serif" text-anchor="middle" fill="#111827">1.2</text>
<text x="214.0" y="425.0" font-size="12" font-family="Arial, sans-serif" text-anchor="end" fill="#111827">Technology</text>
<rect x="230" y="387" width="88" height="64" rx="0" fill="rgb(156,193,237)" stroke="#ffffff"/>
<text x="274.0" y="425.0" font-size="12" font-family="Arial, sans-serif" text-anchor="middle" fill="#111827">19.0</text>
<rect x="322" y="387" width="88" height="64" rx="0" fill="rgb(127,175,231)" stroke="#ffffff"/>
<text x="366.0" y="425.0" font-size="12" font-family="Arial, sans-serif" text-anchor="middle" fill="#111827">28.2</text>
<rect x="414" y="387" width="88" height="64" rx="0" fill="rgb(111,165,228)" stroke="#ffffff"/>
<text x="458.0" y="425.0" font-size="12" font-family="Arial, sans-serif" text-anchor="middle" fill="#111827">33.3</text>
<rect x="506" y="387" width="88" height="64" rx="0" fill="rgb(136,181,233)" stroke="#ffffff"/>
<text x="550.0" y="425.0" font-size="12" font-family="Arial, sans-serif" text-anchor="middle" fill="#111827">25.1</text>
<rect x="598" y="387" width="88" height="64" rx="0" fill="rgb(170,202,240)" stroke="#ffffff"/>
<text x="642.0" y="425.0" font-size="12" font-family="Arial, sans-serif" text-anchor="middle" fill="#111827">14.5</text>
<rect x="690" y="387" width="88" height="64" rx="0" fill="rgb(188,213,244)" stroke="#ffffff"/>
<text x="734.0" y="425.0" font-size="12" font-family="Arial, sans-serif" text-anchor="middle" fill="#111827">8.9</text>
<rect x="782" y="387" width="88" height="64" rx="0" fill="rgb(187,213,244)" stroke="#ffffff"/>
<text x="826.0" y="425.0" font-size="12" font-family="Arial, sans-serif" text-anchor="middle" fill="#111827">9.2</text>
<rect x="874" y="387" width="88" height="64" rx="0" fill="rgb(188,214,244)" stroke="#ffffff"/>
<text x="918.0" y="425.0" font-size="12" font-family="Arial, sans-serif" text-anchor="middle" fill="#111827">8.6</text>
<rect x="966" y="387" width="88" height="64" rx="0" fill="rgb(206,225,248)" stroke="#ffffff"/>
<text x="1010.0" y="425.0" font-size="12" font-family="Arial, sans-serif" text-anchor="middle" fill="#111827">3.1</text>
<rect x="1058" y="387" width="88" height="64" rx="0" fill="rgb(204,224,247)" stroke="#ffffff"/>
<text x="1102.0" y="425.0" font-size="12" font-family="Arial, sans-serif" text-anchor="middle" fill="#111827">3.8</text>
<rect x="1150" y="387" width="88" height="64" rx="0" fill="rgb(206,225,248)" stroke="#ffffff"/>
<text x="1194.0" y="425.0" font-size="12" font-family="Arial, sans-serif" text-anchor="middle" fill="#111827">3.0</text>
<rect x="1242" y="387" width="88" height="64" rx="0" fill="rgb(213,230,249)" stroke="#ffffff"/>
<text x="1286.0" y="425.0" font-size="12" font-family="Arial, sans-serif" text-anchor="middle" fill="#111827">0.8</text>
<text x="30.0" y="676.0" font-size="11" font-family="Arial, sans-serif" text-anchor="start" fill="#111827">Darker cells indicate higher normalized theme emphasis.</text>
</svg>