<svg xmlns="http://www.w3.org/2000/svg" width="980" height="560" viewBox="0 0 980 560">
<rect width="100%" height="100%" fill="#ffffff"/>
<text x="30.0" y="34.0" font-size="22" font-family="Arial, sans-serif" text-anchor="start" fill="#111827">Part 2 Cross-Sector Language and Tone</text>
<text x="30.0" y="56.0" font-size="13" font-family="Arial, sans-serif" text-anchor="start" fill="#111827">Lexical tone indicators per 100 words by sector</text>
<text x="312.5" y="68.0" font-size="11" font-family="Arial, sans-serif" text-anchor="middle" fill="#111827">Collective</text>
<text x="312.5" y="82.0" font-size="11" font-family="Arial, sans-serif" text-anchor="middle" fill="#111827">voice</text>
<text x="457.5" y="68.0" font-size="11" font-family="Arial, sans-serif" text-anchor="middle" fill="#111827">Commitment</text>
<text x="602.5" y="68.0" font-size="11" font-family="Arial, sans-serif" text-anchor="middle" fill="#111827">Aspirational</text>
<text x="747.5" y="68.0" font-size="11" font-family="Arial, sans-serif" text-anchor="middle" fill="#111827">Action/evidence</text>
<text x="892.5" y="68.0" font-size="11" font-family="Arial, sans-serif" text-anchor="middle" fill="#111827">Stakeholder</text>
<text x="892.5" y="82.0" font-size="11" font-family="Arial, sans-serif" text-anchor="middle" fill="#111827">orientation</text>
<text x="224.0" y="146.0" font-size="12" font-family="Arial, sans-serif" text-anchor="end" fill="#111827">Consumer Discretionary</text>
<rect x="240" y="110" width="141" height="60" rx="0" fill="rgb(188,152,104)" stroke="#ffffff"/>
<text x="310.5" y="146.0" font-size="12" font-family="Arial, sans-serif" text-anchor="middle" fill="#111827">1.578</text>
<rect x="385" y="110" width="141" height="60" rx="0" fill="rgb(195,162,118)" stroke="#ffffff"/>
<text x="455.5" y="146.0" font-size="12" font-family="Arial, sans-serif" text-anchor="middle" fill="#111827">0.355</text>
<rect x="530" y="110" width="141" height="60" rx="0" fill="rgb(181,141,89)" stroke="#ffffff"/>
<text x="600.5" y="146.0" font-size="12" font-family="Arial, sans-serif" text-anchor="middle" fill="#111827">0.022</text>
<rect x="675" y="110" width="141" height="60" rx="0" fill="rgb(244,232,216)" stroke="#ffffff"/>
<text x="745.5" y="146.0" font-size="12" font-family="Arial, sans-serif" text-anchor="middle" fill="#111827">0.082</text>
<rect x="820" y="110" width="141" height="60" rx="0" fill="rgb(244,232,216)" stroke="#ffffff"/>
<text x="890.5" y="146.0" font-size="12" font-family="Arial, sans-serif" text-anchor="middle" fill="#111827">0.239</text>
<text x="224.0" y="210.0" font-size="12" font-family="Arial, sans-serif" text-anchor="end" fill="#111827">Energy</text>
<rect x="240" y="174" width="141" height="60" rx="0" fill="rgb(219,196,166)" stroke="#ffffff"/>
<text x="310.5" y="210.0" font-size="12" font-family="Arial, sans-serif" text-anchor="middle" fill="#111827">1.373</text>
<rect x="385" y="174" width="141" height="60" rx="0" fill="rgb(218,195,164)" stroke="#ffffff"/>
<text x="455.5" y="210.0" font-size="12" font-family="Arial, sans-serif" text-anchor="middle" fill="#111827">0.334</text>
<rect x="530" y="174" width="141" height="60" rx="0" fill="rgb(244,232,216)" stroke="#ffffff"/>
<text x="600.5" y="210.0" font-size="12" font-family="Arial, sans-serif" text-anchor="middle" fill="#111827">0.016</text>
<rect x="675" y="174" width="141" height="60" rx="0" fill="rgb(176,135,80)" stroke="#ffffff"/>
<text x="745.5" y="210.0" font-size="12" font-family="Arial, sans-serif" text-anchor="middle" fill="#111827">0.101</text>
<rect x="820" y="174" width="141" height="60" rx="0" fill="rgb(229,210,185)" stroke="#ffffff"/>
<text x="890.5" y="210.0" font-size="12" font-family="Arial, sans-serif" text-anchor="middle" fill="#111827">0.250</text>
<text x="224.0" y="274.0" font-size="12" font-family="Arial, sans-serif" text-anchor="end" fill="#111827">Financials</text>
<rect x="240" y="238" width="141" height="60" rx="0" fill="rgb(195,162,118)" stroke="#ffffff"/>
<text x="310.5" y="274.0" font-size="12" font-family="Arial, sans-serif" text-anchor="middle" fill="#111827">1.531</text>
<rect x="385" y="238" width="141" height="60" rx="0" fill="rgb(230,212,188)" stroke="#ffffff"/>
<text x="455.5" y="274.0" font-size="12" font-family="Arial, sans-serif" text-anchor="middle" fill="#111827">0.323</text>
<rect x="530" y="238" width="141" height="60" rx="0" fill="rgb(226,205,179)" stroke="#ffffff"/>
<text x="600.5" y="274.0" font-size="12" font-family="Arial, sans-serif" text-anchor="middle" fill="#111827">0.018</text>
<rect x="675" y="238" width="141" height="60" rx="0" fill="rgb(201,170,130)" stroke="#ffffff"/>
<text x="745.5" y="274.0" font-size="12" font-family="Arial, sans-serif" text-anchor="middle" fill="#111827">0.094</text>
<rect x="820" y="238" width="141" height="60" rx="0" fill="rgb(150,97,27)" stroke="#ffffff"/>
<text x="890.5" y="274.0" font-size="12" font-family="Arial, sans-serif" text-anchor="middle" fill="#111827">0.308</text>
<text x="224.0" y="338.0" font-size="12" font-family="Arial, sans-serif" text-anchor="end" fill="#111827">Healthcare</text>
<rect x="240" y="302" width="141" height="60" rx="0" fill="rgb(244,232,216)" stroke="#ffffff"/>
<text x="310.5" y="338.0" font-size="12" font-family="Arial, sans-serif" text-anchor="middle" fill="#111827">1.209</text>
<rect x="385" y="302" width="141" height="60" rx="0" fill="rgb(244,232,216)" stroke="#ffffff"/>
<text x="455.5" y="338.0" font-size="12" font-family="Arial, sans-serif" text-anchor="middle" fill="#111827">0.311</text>
<rect x="530" y="302" width="141" height="60" rx="0" fill="rgb(224,203,175)" stroke="#ffffff"/>
<text x="600.5" y="338.0" font-size="12" font-family="Arial, sans-serif" text-anchor="middle" fill="#111827">0.018</text>
<rect x="675" y="302" width="141" height="60" rx="0" fill="rgb(150,97,27)" stroke="#ffffff"/>
<text x="745.5" y="338.0" font-size="12" font-family="Arial, sans-serif" text-anchor="middle" fill="#111827">0.109</text>
<rect x="820" y="302" width="141" height="60" rx="0" fill="rgb(241,227,209)" stroke="#ffffff"/>
<text x="890.5" y="338.0" font-size="12" font-family="Arial, sans-serif" text-anchor="middle" fill="#111827">0.242</text>
<text x="224.0" y="402.0" font-size="12" font-family="Arial, sans-serif" text-anchor="end" fill="#111827">Technology</text>
<rect x="240" y="366" width="141" height="60" rx="0" fill="rgb(150,97,27)" stroke="#ffffff"/>
<text x="310.5" y="402.0" font-size="12" font-family="Arial, sans-serif" text-anchor="middle" fill="#111827">1.834</text>
<rect x="385" y="366" width="141" height="60" rx="0" fill="rgb(150,97,27)" stroke="#ffffff"/>
<text x="455.5" y="402.0" font-size="12" font-family="Arial, sans-serif" text-anchor="middle" fill="#111827">0.395</text>
<rect x="530" y="366" width="141" height="60" rx="0" fill="rgb(150,97,27)" stroke="#ffffff"/>
<text x="600.5" y="402.0" font-size="12" font-family="Arial, sans-serif" text-anchor="middle" fill="#111827">0.024</text>
<rect x="675" y="366" width="141" height="60" rx="0" fill="rgb(225,205,178)" stroke="#ffffff"/>
<text x="745.5" y="402.0" font-size="12" font-family="Arial, sans-serif" text-anchor="middle" fill="#111827">0.087</text>
<rect x="820" y="366" width="141" height="60" rx="0" fill="rgb(226,206,180)" stroke="#ffffff"/>
<text x="890.5" y="402.0" font-size="12" font-family="Arial, sans-serif" text-anchor="middle" fill="#111827">0.252</text>
<text x="30.0" y="536.0" font-size="11" font-family="Arial, sans-serif" text-anchor="start" fill="#111827">Darker cells indicate higher within-indicator sector rank; labels show raw rates.</text>
</svg>