<svg xmlns="http://www.w3.org/2000/svg" width="1280" height="760" viewBox="0 0 1280 760">
<rect width="100%" height="100%" fill="#ffffff"/>
<text x="640.0" y="34.0" font-size="22" font-family="Arial, sans-serif" text-anchor="middle" fill="#111827">Part 2 Theme Emphasis Over Time: Lower-Intensity Themes</text>
<text x="640.0" y="70.0" font-size="13" font-family="Arial, sans-serif" text-anchor="middle" fill="#111827">Themes with overall mean &lt; 10 matches per 10,000 words</text>
<line x1="92.0" y1="670.0" x2="910.0" y2="670.0" stroke="#6b7280" stroke-width="1"/>
<line x1="92.0" y1="92.0" x2="92.0" y2="670.0" stroke="#6b7280" stroke-width="1"/>
<line x1="87.0" y1="670.0" x2="910.0" y2="670.0" stroke="#e5e7eb" stroke-width="1"/>
<text x="80.0" y="674.0" font-size="11" font-family="Arial, sans-serif" text-anchor="end" fill="#111827">0</text>
<line x1="87.0" y1="554.4" x2="910.0" y2="554.4" stroke="#e5e7eb" stroke-width="1"/>
<text x="80.0" y="558.4" font-size="11" font-family="Arial, sans-serif" text-anchor="end" fill="#111827">2</text>
<line x1="87.0" y1="438.8" x2="910.0" y2="438.8" stroke="#e5e7eb" stroke-width="1"/>
<text x="80.0" y="442.8" font-size="11" font-family="Arial, sans-serif" text-anchor="end" fill="#111827">3</text>
<line x1="87.0" y1="323.2" x2="910.0" y2="323.2" stroke="#e5e7eb" stroke-width="1"/>
<text x="80.0" y="327.2" font-size="11" font-family="Arial, sans-serif" text-anchor="end" fill="#111827">5</text>
<line x1="87.0" y1="207.6" x2="910.0" y2="207.6" stroke="#e5e7eb" stroke-width="1"/>
<text x="80.0" y="211.6" font-size="11" font-family="Arial, sans-serif" text-anchor="end" fill="#111827">7</text>
<line x1="87.0" y1="92.0" x2="910.0" y2="92.0" stroke="#e5e7eb" stroke-width="1"/>
<text x="80.0" y="96.0" font-size="11" font-family="Arial, sans-serif" text-anchor="end" fill="#111827">9</text>
<line x1="92.0" y1="670.0" x2="92.0" y2="675.0" stroke="#6b7280" stroke-width="1"/>
<text x="92.0" y="694.0" font-size="11" font-family="Arial, sans-serif" text-anchor="middle" fill="#111827">2016</text>
<line x1="194.2" y1="670.0" x2="194.2" y2="675.0" stroke="#6b7280" stroke-width="1"/>
<text x="194.2" y="694.0" font-size="11" font-family="Arial, sans-serif" text-anchor="middle" fill="#111827">2017</text>
<line x1="296.5" y1="670.0" x2="296.5" y2="675.0" stroke="#6b7280" stroke-width="1"/>
<text x="296.5" y="694.0" font-size="11" font-family="Arial, sans-serif" text-anchor="middle" fill="#111827">2018</text>
<line x1="398.8" y1="670.0" x2="398.8" y2="675.0" stroke="#6b7280" stroke-width="1"/>
<text x="398.8" y="694.0" font-size="11" font-family="Arial, sans-serif" text-anchor="middle" fill="#111827">2019</text>
<line x1="501.0" y1="670.0" x2="501.0" y2="675.0" stroke="#6b7280" stroke-width="1"/>
<text x="501.0" y="694.0" font-size="11" font-family="Arial, sans-serif" text-anchor="middle" fill="#111827">2020</text>
<line x1="603.2" y1="670.0" x2="603.2" y2="675.0" stroke="#6b7280" stroke-width="1"/>
<text x="603.2" y="694.0" font-size="11" font-family="Arial, sans-serif" text-anchor="middle" fill="#111827">2021</text>
<line x1="705.5" y1="670.0" x2="705.5" y2="675.0" stroke="#6b7280" stroke-width="1"/>
<text x="705.5" y="694.0" font-size="11" font-family="Arial, sans-serif" text-anchor="middle" fill="#111827">2022</text>
<line x1="807.8" y1="670.0" x2="807.8" y2="675.0" stroke="#6b7280" stroke-width="1"/>
<text x="807.8" y="694.0" font-size="11" font-family="Arial, sans-serif" text-anchor="middle" fill="#111827">2023</text>
<line x1="910.0" y1="670.0" x2="910.0" y2="675.0" stroke="#6b7280" stroke-width="1"/>
<text x="910.0" y="694.0" font-size="11" font-family="Arial, sans-serif" text-anchor="middle" fill="#111827">2024</text>
<path d="M 92.0 259.8 L 194.2 221.9 L 296.5 242.4 L 398.8 225.3 L 501.0 216.7 L 603.2 221.7 L 705.5 192.7 L 807.8 151.8 L 910.0 134.8" fill="none" stroke="#2563eb" stroke-width="2.5"/>
<circle cx="92.0" cy="259.8" r="3.2" fill="#2563eb"/>
<circle cx="194.2" cy="221.9" r="3.2" fill="#2563eb"/>
<circle cx="296.5" cy="242.4" r="3.2" fill="#2563eb"/>
<circle cx="398.8" cy="225.3" r="3.2" fill="#2563eb"/>
<circle cx="501.0" cy="216.7" r="3.2" fill="#2563eb"/>
<circle cx="603.2" cy="221.7" r="3.2" fill="#2563eb"/>
<circle cx="705.5" cy="192.7" r="3.2" fill="#2563eb"/>
<circle cx="807.8" cy="151.8" r="3.2" fill="#2563eb"/>
<circle cx="910.0" cy="134.8" r="3.2" fill="#2563eb"/>
<rect x="944" y="82" width="14" height="14" fill="#2563eb"/>
<text x="966.0" y="94.0" font-size="11" font-family="Arial, sans-serif" text-anchor="start" fill="#111827">Integrity and ethics</text>
<path d="M 92.0 495.6 L 194.2 483.0 L 296.5 474.0 L 398.8 450.3 L 501.0 418.8 L 603.2 422.2 L 705.5 390.7 L 807.8 350.7 L 910.0 308.0" fill="none" stroke="#dc2626" stroke-width="2.5"/>
<circle cx="92.0" cy="495.6" r="3.2" fill="#dc2626"/>
<circle cx="194.2" cy="483.0" r="3.2" fill="#dc2626"/>
<circle cx="296.5" cy="474.0" r="3.2" fill="#dc2626"/>
<circle cx="398.8" cy="450.3" r="3.2" fill="#dc2626"/>
<circle cx="501.0" cy="418.8" r="3.2" fill="#dc2626"/>
<circle cx="603.2" cy="422.2" r="3.2" fill="#dc2626"/>
<circle cx="705.5" cy="390.7" r="3.2" fill="#dc2626"/>
<circle cx="807.8" cy="350.7" r="3.2" fill="#dc2626"/>
<circle cx="910.0" cy="308.0" r="3.2" fill="#dc2626"/>
<rect x="944" y="106" width="14" height="14" fill="#dc2626"/>
<text x="966.0" y="118.0" font-size="11" font-family="Arial, sans-serif" text-anchor="start" fill="#111827">Innovation and excellence</text>
<path d="M 92.0 560.1 L 194.2 551.9 L 296.5 527.7 L 398.8 482.5 L 501.0 396.1 L 603.2 282.3 L 705.5 331.2 L 807.8 356.7 L 910.0 391.3" fill="none" stroke="#16a34a" stroke-width="2.5"/>
<circle cx="92.0" cy="560.1" r="3.2" fill="#16a34a"/>
<circle cx="194.2" cy="551.9" r="3.2" fill="#16a34a"/>
<circle cx="296.5" cy="527.7" r="3.2" fill="#16a34a"/>
<circle cx="398.8" cy="482.5" r="3.2" fill="#16a34a"/>
<circle cx="501.0" cy="396.1" r="3.2" fill="#16a34a"/>
<circle cx="603.2" cy="282.3" r="3.2" fill="#16a34a"/>
<circle cx="705.5" cy="331.2" r="3.2" fill="#16a34a"/>
<circle cx="807.8" cy="356.7" r="3.2" fill="#16a34a"/>
<circle cx="910.0" cy="391.3" r="3.2" fill="#16a34a"/>
<rect x="944" y="130" width="14" height="14" fill="#16a34a"/>
<text x="966.0" y="142.0" font-size="11" font-family="Arial, sans-serif" text-anchor="start" fill="#111827">Social impact and community</text>
<path d="M 92.0 524.6 L 194.2 543.3 L 296.5 513.8 L 398.8 509.1 L 501.0 480.9 L 603.2 443.9 L 705.5 438.3 L 807.8 457.7 L 910.0 438.9" fill="none" stroke="#9333ea" stroke-width="2.5"/>
<circle cx="92.0" cy="524.6" r="3.2" fill="#9333ea"/>
<circle cx="194.2" cy="543.3" r="3.2" fill="#9333ea"/>
<circle cx="296.5" cy="513.8" r="3.2" fill="#9333ea"/>
<circle cx="398.8" cy="509.1" r="3.2" fill="#9333ea"/>
<circle cx="501.0" cy="480.9" r="3.2" fill="#9333ea"/>
<circle cx="603.2" cy="443.9" r="3.2" fill="#9333ea"/>
<circle cx="705.5" cy="438.3" r="3.2" fill="#9333ea"/>
<circle cx="807.8" cy="457.7" r="3.2" fill="#9333ea"/>
<circle cx="910.0" cy="438.9" r="3.2" fill="#9333ea"/>
<rect x="944" y="154" width="14" height="14" fill="#9333ea"/>
<text x="966.0" y="166.0" font-size="11" font-family="Arial, sans-serif" text-anchor="start" fill="#111827">Collaboration and partnership</text>
<path d="M 92.0 647.2 L 194.2 639.3 L 296.5 627.3 L 398.8 616.9 L 501.0 610.3 L 603.2 596.2 L 705.5 606.4 L 807.8 589.4 L 910.0 590.1" fill="none" stroke="#ea580c" stroke-width="2.5"/>
<circle cx="92.0" cy="647.2" r="3.2" fill="#ea580c"/>
<circle cx="194.2" cy="639.3" r="3.2" fill="#ea580c"/>
<circle cx="296.5" cy="627.3" r="3.2" fill="#ea580c"/>
<circle cx="398.8" cy="616.9" r="3.2" fill="#ea580c"/>
<circle cx="501.0" cy="610.3" r="3.2" fill="#ea580c"/>
<circle cx="603.2" cy="596.2" r="3.2" fill="#ea580c"/>
<circle cx="705.5" cy="606.4" r="3.2" fill="#ea580c"/>
<circle cx="807.8" cy="589.4" r="3.2" fill="#ea580c"/>
<circle cx="910.0" cy="590.1" r="3.2" fill="#ea580c"/>
<rect x="944" y="178" width="14" height="14" fill="#ea580c"/>
<text x="966.0" y="190.0" font-size="11" font-family="Arial, sans-serif" text-anchor="start" fill="#111827">Purpose and identity</text>
<text x="30.0" y="736.0" font-size="11" font-family="Arial, sans-serif" text-anchor="start" fill="#111827">Generated from outputs/text_mining/theme_year_summary.csv</text>
</svg>