<svg xmlns="http://www.w3.org/2000/svg" width="1280" height="760" viewBox="0 0 1280 760">
<rect width="100%" height="100%" fill="#ffffff"/>
<text x="640.0" y="34.0" font-size="22" font-family="Arial, sans-serif" text-anchor="middle" fill="#111827">Part 2 Theme Emphasis Over Time: Higher-Intensity Themes</text>
<text x="640.0" y="70.0" font-size="13" font-family="Arial, sans-serif" text-anchor="middle" fill="#111827">Themes with overall mean &gt;= 10 matches per 10,000 words</text>
<line x1="92.0" y1="670.0" x2="910.0" y2="670.0" stroke="#6b7280" stroke-width="1"/>
<line x1="92.0" y1="92.0" x2="92.0" y2="670.0" stroke="#6b7280" stroke-width="1"/>
<line x1="87.0" y1="670.0" x2="910.0" y2="670.0" stroke="#e5e7eb" stroke-width="1"/>
<text x="80.0" y="674.0" font-size="11" font-family="Arial, sans-serif" text-anchor="end" fill="#111827">0</text>
<line x1="87.0" y1="554.4" x2="910.0" y2="554.4" stroke="#e5e7eb" stroke-width="1"/>
<text x="80.0" y="558.4" font-size="11" font-family="Arial, sans-serif" text-anchor="end" fill="#111827">9</text>
<line x1="87.0" y1="438.8" x2="910.0" y2="438.8" stroke="#e5e7eb" stroke-width="1"/>
<text x="80.0" y="442.8" font-size="11" font-family="Arial, sans-serif" text-anchor="end" fill="#111827">18</text>
<line x1="87.0" y1="323.2" x2="910.0" y2="323.2" stroke="#e5e7eb" stroke-width="1"/>
<text x="80.0" y="327.2" font-size="11" font-family="Arial, sans-serif" text-anchor="end" fill="#111827">27</text>
<line x1="87.0" y1="207.6" x2="910.0" y2="207.6" stroke="#e5e7eb" stroke-width="1"/>
<text x="80.0" y="211.6" font-size="11" font-family="Arial, sans-serif" text-anchor="end" fill="#111827">37</text>
<line x1="87.0" y1="92.0" x2="910.0" y2="92.0" stroke="#e5e7eb" stroke-width="1"/>
<text x="80.0" y="96.0" font-size="11" font-family="Arial, sans-serif" text-anchor="end" fill="#111827">46</text>
<line x1="92.0" y1="670.0" x2="92.0" y2="675.0" stroke="#6b7280" stroke-width="1"/>
<text x="92.0" y="694.0" font-size="11" font-family="Arial, sans-serif" text-anchor="middle" fill="#111827">2016</text>
<line x1="194.2" y1="670.0" x2="194.2" y2="675.0" stroke="#6b7280" stroke-width="1"/>
<text x="194.2" y="694.0" font-size="11" font-family="Arial, sans-serif" text-anchor="middle" fill="#111827">2017</text>
<line x1="296.5" y1="670.0" x2="296.5" y2="675.0" stroke="#6b7280" stroke-width="1"/>
<text x="296.5" y="694.0" font-size="11" font-family="Arial, sans-serif" text-anchor="middle" fill="#111827">2018</text>
<line x1="398.8" y1="670.0" x2="398.8" y2="675.0" stroke="#6b7280" stroke-width="1"/>
<text x="398.8" y="694.0" font-size="11" font-family="Arial, sans-serif" text-anchor="middle" fill="#111827">2019</text>
<line x1="501.0" y1="670.0" x2="501.0" y2="675.0" stroke="#6b7280" stroke-width="1"/>
<text x="501.0" y="694.0" font-size="11" font-family="Arial, sans-serif" text-anchor="middle" fill="#111827">2020</text>
<line x1="603.2" y1="670.0" x2="603.2" y2="675.0" stroke="#6b7280" stroke-width="1"/>
<text x="603.2" y="694.0" font-size="11" font-family="Arial, sans-serif" text-anchor="middle" fill="#111827">2021</text>
<line x1="705.5" y1="670.0" x2="705.5" y2="675.0" stroke="#6b7280" stroke-width="1"/>
<text x="705.5" y="694.0" font-size="11" font-family="Arial, sans-serif" text-anchor="middle" fill="#111827">2022</text>
<line x1="807.8" y1="670.0" x2="807.8" y2="675.0" stroke="#6b7280" stroke-width="1"/>
<text x="807.8" y="694.0" font-size="11" font-family="Arial, sans-serif" text-anchor="middle" fill="#111827">2023</text>
<line x1="910.0" y1="670.0" x2="910.0" y2="675.0" stroke="#6b7280" stroke-width="1"/>
<text x="910.0" y="694.0" font-size="11" font-family="Arial, sans-serif" text-anchor="middle" fill="#111827">2024</text>
<path d="M 92.0 238.6 L 194.2 234.7 L 296.5 221.6 L 398.8 205.5 L 501.0 175.8 L 603.2 169.8 L 705.5 189.5 L 807.8 134.8 L 910.0 164.5" fill="none" stroke="#2563eb" stroke-width="2.5"/>
<circle cx="92.0" cy="238.6" r="3.2" fill="#2563eb"/>
<circle cx="194.2" cy="234.7" r="3.2" fill="#2563eb"/>
<circle cx="296.5" cy="221.6" r="3.2" fill="#2563eb"/>
<circle cx="398.8" cy="205.5" r="3.2" fill="#2563eb"/>
<circle cx="501.0" cy="175.8" r="3.2" fill="#2563eb"/>
<circle cx="603.2" cy="169.8" r="3.2" fill="#2563eb"/>
<circle cx="705.5" cy="189.5" r="3.2" fill="#2563eb"/>
<circle cx="807.8" cy="134.8" r="3.2" fill="#2563eb"/>
<circle cx="910.0" cy="164.5" r="3.2" fill="#2563eb"/>
<rect x="944" y="82" width="14" height="14" fill="#2563eb"/>
<text x="966.0" y="94.0" font-size="11" font-family="Arial, sans-serif" text-anchor="start" fill="#111827">Shareholders and performance</text>
<path d="M 92.0 384.2 L 194.2 372.0 L 296.5 342.3 L 398.8 310.6 L 501.0 290.6 L 603.2 255.2 L 705.5 267.1 L 807.8 308.5 L 910.0 303.1" fill="none" stroke="#dc2626" stroke-width="2.5"/>
<circle cx="92.0" cy="384.2" r="3.2" fill="#dc2626"/>
<circle cx="194.2" cy="372.0" r="3.2" fill="#dc2626"/>
<circle cx="296.5" cy="342.3" r="3.2" fill="#dc2626"/>
<circle cx="398.8" cy="310.6" r="3.2" fill="#dc2626"/>
<circle cx="501.0" cy="290.6" r="3.2" fill="#dc2626"/>
<circle cx="603.2" cy="255.2" r="3.2" fill="#dc2626"/>
<circle cx="705.5" cy="267.1" r="3.2" fill="#dc2626"/>
<circle cx="807.8" cy="308.5" r="3.2" fill="#dc2626"/>
<circle cx="910.0" cy="303.1" r="3.2" fill="#dc2626"/>
<rect x="944" y="106" width="14" height="14" fill="#dc2626"/>
<text x="966.0" y="118.0" font-size="11" font-family="Arial, sans-serif" text-anchor="start" fill="#111827">Employees and workplace</text>
<path d="M 92.0 421.9 L 194.2 403.4 L 296.5 399.8 L 398.8 366.8 L 501.0 362.1 L 603.2 261.5 L 705.5 289.1 L 807.8 277.7 L 910.0 312.6" fill="none" stroke="#16a34a" stroke-width="2.5"/>
<circle cx="92.0" cy="421.9" r="3.2" fill="#16a34a"/>
<circle cx="194.2" cy="403.4" r="3.2" fill="#16a34a"/>
<circle cx="296.5" cy="399.8" r="3.2" fill="#16a34a"/>
<circle cx="398.8" cy="366.8" r="3.2" fill="#16a34a"/>
<circle cx="501.0" cy="362.1" r="3.2" fill="#16a34a"/>
<circle cx="603.2" cy="261.5" r="3.2" fill="#16a34a"/>
<circle cx="705.5" cy="289.1" r="3.2" fill="#16a34a"/>
<circle cx="807.8" cy="277.7" r="3.2" fill="#16a34a"/>
<circle cx="910.0" cy="312.6" r="3.2" fill="#16a34a"/>
<rect x="944" y="130" width="14" height="14" fill="#16a34a"/>
<text x="966.0" y="142.0" font-size="11" font-family="Arial, sans-serif" text-anchor="start" fill="#111827">Diversity, equity, and inclusion</text>
<path d="M 92.0 381.2 L 194.2 387.2 L 296.5 361.9 L 398.8 357.0 L 501.0 350.6 L 603.2 350.5 L 705.5 350.5 L 807.8 333.6 L 910.0 329.4" fill="none" stroke="#9333ea" stroke-width="2.5"/>
<circle cx="92.0" cy="381.2" r="3.2" fill="#9333ea"/>
<circle cx="194.2" cy="387.2" r="3.2" fill="#9333ea"/>
<circle cx="296.5" cy="361.9" r="3.2" fill="#9333ea"/>
<circle cx="398.8" cy="357.0" r="3.2" fill="#9333ea"/>
<circle cx="501.0" cy="350.6" r="3.2" fill="#9333ea"/>
<circle cx="603.2" cy="350.5" r="3.2" fill="#9333ea"/>
<circle cx="705.5" cy="350.5" r="3.2" fill="#9333ea"/>
<circle cx="807.8" cy="333.6" r="3.2" fill="#9333ea"/>
<circle cx="910.0" cy="329.4" r="3.2" fill="#9333ea"/>
<rect x="944" y="154" width="14" height="14" fill="#9333ea"/>
<text x="966.0" y="166.0" font-size="11" font-family="Arial, sans-serif" text-anchor="start" fill="#111827">Leadership and accountability</text>
<path d="M 92.0 478.7 L 194.2 479.6 L 296.5 469.0 L 398.8 462.6 L 501.0 449.5 L 603.2 445.2 L 705.5 452.5 L 807.8 442.0 L 910.0 441.2" fill="none" stroke="#ea580c" stroke-width="2.5"/>
<circle cx="92.0" cy="478.7" r="3.2" fill="#ea580c"/>
<circle cx="194.2" cy="479.6" r="3.2" fill="#ea580c"/>
<circle cx="296.5" cy="469.0" r="3.2" fill="#ea580c"/>
<circle cx="398.8" cy="462.6" r="3.2" fill="#ea580c"/>
<circle cx="501.0" cy="449.5" r="3.2" fill="#ea580c"/>
<circle cx="603.2" cy="445.2" r="3.2" fill="#ea580c"/>
<circle cx="705.5" cy="452.5" r="3.2" fill="#ea580c"/>
<circle cx="807.8" cy="442.0" r="3.2" fill="#ea580c"/>
<circle cx="910.0" cy="441.2" r="3.2" fill="#ea580c"/>
<rect x="944" y="178" width="14" height="14" fill="#ea580c"/>
<text x="966.0" y="190.0" font-size="11" font-family="Arial, sans-serif" text-anchor="start" fill="#111827">Customers and service</text>
<path d="M 92.0 578.6 L 194.2 577.6 L 296.5 568.6 L 398.8 548.3 L 501.0 519.8 L 603.2 491.5 L 705.5 410.6 L 807.8 386.3 L 910.0 390.2" fill="none" stroke="#0891b2" stroke-width="2.5"/>
<circle cx="92.0" cy="578.6" r="3.2" fill="#0891b2"/>
<circle cx="194.2" cy="577.6" r="3.2" fill="#0891b2"/>
<circle cx="296.5" cy="568.6" r="3.2" fill="#0891b2"/>
<circle cx="398.8" cy="548.3" r="3.2" fill="#0891b2"/>
<circle cx="501.0" cy="519.8" r="3.2" fill="#0891b2"/>
<circle cx="603.2" cy="491.5" r="3.2" fill="#0891b2"/>
<circle cx="705.5" cy="410.6" r="3.2" fill="#0891b2"/>
<circle cx="807.8" cy="386.3" r="3.2" fill="#0891b2"/>
<circle cx="910.0" cy="390.2" r="3.2" fill="#0891b2"/>
<rect x="944" y="202" width="14" height="14" fill="#0891b2"/>
<text x="966.0" y="214.0" font-size="11" font-family="Arial, sans-serif" text-anchor="start" fill="#111827">Environment and sustainability</text>
<path d="M 92.0 569.0 L 194.2 574.8 L 296.5 565.3 L 398.8 557.4 L 501.0 542.9 L 603.2 512.2 L 705.5 506.3 L 807.8 505.2 L 910.0 502.7" fill="none" stroke="#db2777" stroke-width="2.5"/>
<circle cx="92.0" cy="569.0" r="3.2" fill="#db2777"/>
<circle cx="194.2" cy="574.8" r="3.2" fill="#db2777"/>
<circle cx="296.5" cy="565.3" r="3.2" fill="#db2777"/>
<circle cx="398.8" cy="557.4" r="3.2" fill="#db2777"/>
<circle cx="501.0" cy="542.9" r="3.2" fill="#db2777"/>
<circle cx="603.2" cy="512.2" r="3.2" fill="#db2777"/>
<circle cx="705.5" cy="506.3" r="3.2" fill="#db2777"/>
<circle cx="807.8" cy="505.2" r="3.2" fill="#db2777"/>
<circle cx="910.0" cy="502.7" r="3.2" fill="#db2777"/>
<rect x="944" y="226" width="14" height="14" fill="#db2777"/>
<text x="966.0" y="238.0" font-size="11" font-family="Arial, sans-serif" text-anchor="start" fill="#111827">Health, safety, and wellbeing</text>
<text x="30.0" y="736.0" font-size="11" font-family="Arial, sans-serif" text-anchor="start" fill="#111827">Generated from outputs/text_mining/theme_year_summary.csv</text>
</svg>